<svg xmlns="http://www.w3.org/2000/svg" version="1.1" id="svg2" width="179.388" height="179.388"><path d="M86.212 7.444v37.972c-5.445 1.705-4.201-3.277-4.19-7.027v-26.09c-3.909-.135-8.538-.991-6.848 4.472v28.645c-5.446 1.706-4.202-3.278-4.192-7.027V17.613c-3.255.465-8.117-.547-6.572 4.33l-.284 23.473c-3.214-.778-10.254 2.27-8.782-3.194.298-6.23-.045-12.937-4.223-17.972-3.308-5.034-9.47-7.82-15.423-6.454-7.397.582-13.265 7.188-13.384 14.531-1.264 9.295 6.029 19.347 15.702 19.582 3.024.342 6.385.168 9.196.533-6.237 22.637-17.58 44.765-16.723 68.903-.613 17.831 9.83 35.568 26.006 43.265 10.248 4.97 21.686 8.063 33.148 7.013 9.04-.24 18.29-.577 26.683-4.349 14.594-5.232 26.369-17.591 30.316-32.656 2.413-9.767 1.698-20.094.334-29.975-2.84-18.073-10.921-34.709-15.55-52.303 6.869-.283 15.353.46 20.098-5.674 6.394-6.22 6.544-17.577.839-24.252-4.554-4.729-12.319-6.15-18.345-3.743-7.41 3.762-11.434 12.428-10.698 20.56.284 3.817.668 7.715-4.387 6.185-5.844 1.845-4.338-3.751-4.492-7.665-.08-6.503-.158-13.006-.236-19.51-2.98.015-8.064-2.29-6.528 2.695v24.48c-5.445 1.706-4.2-3.279-4.19-7.027v-26.09c-3.908-.135-8.539-.992-6.849 4.472v28.645c-5.445 1.705-4.201-3.277-4.19-7.027V6.166c-1.691.592-6.702-1.329-6.236 1.278zM38.568 24.129c5.089.179 8.735 5.174 9.671 9.792.49 3.674 1.02 7.635.247 11.23-5.807.326-13.155 1.528-17.111-3.861-4.576-5.49-2.774-15.364 4.916-16.918a9.776 9.776 0 012.277-.243zm101.528 0c7.513-.338 11.925 8.477 8.64 14.697-1.915 5.06-7.618 7.242-12.6 6.587-1.9-.3-4.794.597-6.125-.698-.619-6.863-.302-15.213 6.045-19.365 1.163-.888 2.593-1.242 4.04-1.221zM59.303 52.265c5.718-.639 5.1 2.842 4.83 7.027-.024 33.79.069 67.58-.114 101.37-13.822-5.595-25.37-18.243-26.527-33.546-2.216-19.78 4.731-38.7 11.22-57.043 1.923-5.904 4.002-11.772 5.481-17.808zm13.772 0c4.343-.45 1.098 6.689 2.099 9.582v101.887c-2.143-.049-4.93-.226-3.894-3.18-.101-36.096-.2-72.193-.3-108.29zm11.042 0c4.339-.446 1.094 6.69 2.095 9.582v103.16c-5.445 1.705-4.201-3.278-4.19-7.028V52.265zm10.426 0c4.339-.446 1.094 6.69 2.095 9.582v103.16c-5.445 1.705-4.201-3.278-4.19-7.028V52.265zm11.043 0c4.338-.445 1.074 6.691 2.067 9.582l-.28 101.218c-3.68 1.935-4.735.433-3.886-3.476V52.265zm13.77 0c3.229-.435 5.876-.225 5.992 3.385 6.153 21.712 16.904 42.67 16.203 65.715.336 13.18-6.016 26.225-16.964 33.681-3.115 2.279-6.525 4.277-10.061 5.673V52.265z" id="path12" fill="#da9c20" fill-opacity="1" stroke-width=".613"/></svg>